<svg xmlns="http://www.w3.org/2000/svg" viewBox="0 0 31.68 34.6"><defs><style>.cls-1{fill:#c8a97d;}</style></defs><title>account資產 2</title><g id="圖層_2" data-name="圖層 2"><g id="圖層_1-2" data-name="圖層 1"><path class="cls-1" d="M15.84,16.19a8.1,8.1,0,1,1,8.1-8.1A8.11,8.11,0,0,1,15.84,16.19ZM15.84,3a5.1,5.1,0,1,0,5.1,5.1A5.1,5.1,0,0,0,15.84,3Z"/><path class="cls-1" d="M30.17,34.6a1.5,1.5,0,0,1-1.45-1.14c-.13-.51-3.21-12.29-13-12.29S3.08,32.94,3,33.44A1.5,1.5,0,0,1,0,32.77c0-.15,3.47-14.59,15.66-14.59s15.9,14.42,15.93,14.56a1.5,1.5,0,0,1-1.46,1.86Z"/></g></g></svg>