<?xml version="1.0" encoding="utf-8"?>
<!-- Generator: Adobe Illustrator 21.1.0, SVG Export Plug-In . SVG Version: 6.00 Build 0)  -->
<svg version="1.1" id="圖層_1" xmlns="http://www.w3.org/2000/svg" xmlns:xlink="http://www.w3.org/1999/xlink" x="0px" y="0px"
	 viewBox="0 0 253.6 241.4" style="enable-background:new 0 0 253.6 241.4;" xml:space="preserve">
<style type="text/css">
	.st0{fill:url(#SVGID_1_);}
	.st1{fill:url(#SVGID_2_);}
	.st2{fill:url(#SVGID_3_);}
	.st3{fill:url(#SVGID_4_);}
	.st4{fill:url(#SVGID_5_);}
	.st5{fill:url(#SVGID_6_);}
	.st6{fill:url(#SVGID_7_);}
	.st7{fill:url(#SVGID_8_);}
	.st8{fill:url(#SVGID_9_);}
	.st9{fill:url(#SVGID_10_);}
	.st10{fill:url(#SVGID_11_);}
	.st11{fill:url(#SVGID_12_);}
	.st12{fill:url(#SVGID_13_);}
	.st13{fill:url(#SVGID_14_);}
	.st14{fill:url(#SVGID_15_);}
	.st15{fill:url(#SVGID_16_);}
	.st16{fill:url(#SVGID_17_);}
</style>
<title>資產 7</title>
<g id="圖層_2">
	<g id="圖層_1-2">
		<linearGradient id="SVGID_1_" gradientUnits="userSpaceOnUse" x1="100.4499" y1="232.3832" x2="100.4499" y2="241.3857">
			<stop  offset="0" style="stop-color:#AA6800"/>
			<stop  offset="0.1704" style="stop-color:#935A00"/>
			<stop  offset="0.529" style="stop-color:#573500"/>
			<stop  offset="1" style="stop-color:#000000"/>
		</linearGradient>
		<path class="st0" d="M146.1,233.4c-7.3,2.7-14.8,4.7-22.4,5.9c-3.8,0.7-7.7,1.1-11.5,1.5s-7.7,0.5-11.6,0.6s-7.8,0-11.6-0.3
			s-7.7-0.6-11.6-1.1s-7.7-1.2-11.4-2s-7.5-1.9-11.2-3.1c-0.2,0-0.4-0.3-0.3-0.5c0-0.2,0.3-0.4,0.5-0.3l0,0l0,0
			c3.8,0.3,7.6,0.7,11.4,1.1s7.6,0.6,11.4,0.8s7.6,0.4,11.4,0.4s7.6,0.1,11.4,0s7.6-0.2,11.3-0.4s7.6-0.5,11.3-0.8
			c7.6-0.7,15.1-1.7,22.7-2.9c0.3-0.1,0.6,0.1,0.6,0.4C146.5,233,146.3,233.3,146.1,233.4L146.1,233.4L146.1,233.4z"/>
		<linearGradient id="SVGID_2_" gradientUnits="userSpaceOnUse" x1="100.8576" y1="209.8859" x2="100.8576" y2="231.7319">
			<stop  offset="0" style="stop-color:#AA6800"/>
			<stop  offset="0.1704" style="stop-color:#935A00"/>
			<stop  offset="0.529" style="stop-color:#573500"/>
			<stop  offset="1" style="stop-color:#000000"/>
		</linearGradient>
		<path class="st1" d="M174.6,211.7c-10.6,7.3-22.8,12-35.3,15.1c-6.3,1.6-12.6,2.7-19,3.5c-6.4,0.8-12.8,1.2-19.2,1.3
			s-12.8-0.1-19.2-0.7c-6.4-0.6-12.7-1.5-19-2.8c-12.5-2.6-24.9-6.7-36-13.1c-0.2-0.2-0.3-0.5-0.1-0.7c0.1-0.2,0.4-0.3,0.6-0.2l0,0
			c11.7,4.5,23.9,7.7,36.3,9.5c6.2,0.9,12.4,1.6,18.7,1.9s12.5,0.5,18.7,0.3s12.5-0.5,18.7-1.2s12.4-1.6,18.5-2.9
			c12.3-2.4,24.2-6.4,35.4-11.9l0,0c0.5-0.3,1.1-0.1,1.3,0.4C175.2,210.9,175,211.5,174.6,211.7L174.6,211.7z"/>
		<linearGradient id="SVGID_3_" gradientUnits="userSpaceOnUse" x1="96.9802" y1="172.45" x2="96.9802" y2="221.4242">
			<stop  offset="0" style="stop-color:#AA6800"/>
			<stop  offset="0.1704" style="stop-color:#935A00"/>
			<stop  offset="0.529" style="stop-color:#573500"/>
			<stop  offset="1" style="stop-color:#000000"/>
		</linearGradient>
		<path class="st2" d="M192.3,173.1c0.1,2.4-0.2,4.9-0.8,7.2c-0.7,2.4-1.7,4.6-2.9,6.7c-2.6,4.2-5.8,7.9-9.6,11
			c-7.5,6.2-16.3,10.6-25.3,13.9c-4.5,1.7-9.1,3.1-13.8,4.3c-4.7,1.2-9.4,2.1-14.1,2.9c-4.7,0.8-9.5,1.3-14.3,1.7s-9.6,0.5-14.4,0.6
			s-9.6-0.2-14.4-0.6s-9.6-0.9-14.3-1.6s-9.5-1.7-14.1-2.9c-4.7-1.2-9.3-2.6-13.8-4.3c-9-3.4-17.8-7.7-25.3-13.9
			c-3.8-3.1-7.1-6.8-9.6-11c-1.2-2.1-2.2-4.4-2.9-6.8c-0.6-2.4-0.9-4.8-0.9-7.3c0-0.3,0.3-0.6,0.6-0.6s0.6,0.3,0.6,0.6l0,0
			c0.1,2.3,0.6,4.6,1.4,6.7c0.8,2.1,1.9,4.2,3.2,6.1c2.7,3.7,5.9,7,9.6,9.7c3.7,2.7,7.7,5.1,11.9,7.1c4.2,2,8.5,3.8,12.9,5.3
			c8.9,2.9,18,5,27.2,6.3c4.6,0.6,9.3,1.1,13.9,1.5s9.3,0.4,14,0.5s9.3-0.1,14-0.4s9.3-0.8,13.9-1.5c9.3-1.3,18.4-3.4,27.3-6.3
			c4.4-1.5,8.7-3.2,12.9-5.2c4.2-2,8.2-4.4,11.9-7.1c3.7-2.7,7-6,9.7-9.7c1.3-1.9,2.4-3.9,3.2-6.1c0.8-2.2,1.2-4.4,1.4-6.8l0,0
			c0.1-0.3,0.3-0.5,0.6-0.4C192.1,172.7,192.2,172.9,192.3,173.1L192.3,173.1z"/>
		<g id="圖層_2-2">
			<g id="圖層_1-2-2">
				<linearGradient id="SVGID_4_" gradientUnits="userSpaceOnUse" x1="55.7253" y1="3.402136e-03" x2="55.7253" y2="37.56">
					<stop  offset="0" style="stop-color:#AA6800"/>
					<stop  offset="0.1704" style="stop-color:#935A00"/>
					<stop  offset="0.529" style="stop-color:#573500"/>
					<stop  offset="1" style="stop-color:#000000"/>
				</linearGradient>
				<path class="st3" d="M65.1,20.9c0-1.4-0.4-2.8-1-4.1c-1-2-1.2-4.4-0.6-6.6c0.3-1,0.3-2,0.2-3c-0.5-4.4-4.5-7.6-8.9-7.1
					c-4.1,0.5-7.1,3.9-7.2,7.9c0,0.8,0.1,1.6,0.3,2.4c0.6,2.1,0.3,4.4-0.7,6.4c-1.8,3.7-1,8,1.9,10.9c2.1,2,3.9,4.4,5.2,7l1.3,2.9
					l1.3-2.9c1.3-2.6,3-5,5.2-7C64,25.9,65.1,23.5,65.1,20.9z"/>
				<linearGradient id="SVGID_5_" gradientUnits="userSpaceOnUse" x1="86.255" y1="91.9535" x2="86.255" y2="100.4719">
					<stop  offset="0" style="stop-color:#AA6800"/>
					<stop  offset="0.1704" style="stop-color:#935A00"/>
					<stop  offset="0.529" style="stop-color:#573500"/>
					<stop  offset="1" style="stop-color:#000000"/>
				</linearGradient>
				<path class="st4" d="M92.6,93c0.5,1.8,0,3.7-1.2,5.1c-2.4,2.8-6.6,3.2-9.4,0.8c-0.3-0.2-0.6-0.5-0.8-0.8
					c-1.2-1.4-1.7-3.3-1.2-5.1c0.2-0.7,1-1.2,1.7-1l0,0c0.4,0.1,0.7,0.4,0.9,0.7l0.1,0.3c0.4,0.8,0.9,1.4,1.7,1.9
					c1.2,0.7,2.7,0.7,3.8,0c0.7-0.5,1.3-1.1,1.7-1.9l0.1-0.3c0.4-0.7,1.2-1,1.9-0.6C92.2,92.3,92.5,92.6,92.6,93z"/>
				<linearGradient id="SVGID_6_" gradientUnits="userSpaceOnUse" x1="110.3143" y1="91.9734" x2="110.3143" y2="100.4719">
					<stop  offset="0" style="stop-color:#AA6800"/>
					<stop  offset="0.1704" style="stop-color:#935A00"/>
					<stop  offset="0.529" style="stop-color:#573500"/>
					<stop  offset="1" style="stop-color:#000000"/>
				</linearGradient>
				<path class="st5" d="M116.6,93c0.5,1.8,0,3.7-1.2,5.1c-2.4,2.8-6.6,3.2-9.4,0.8c-0.3-0.2-0.6-0.5-0.8-0.8
					c-1.2-1.4-1.7-3.3-1.2-5.1c0.2-0.8,1-1.2,1.8-1c0.4,0.1,0.7,0.4,0.9,0.7l0.1,0.3c0.4,0.8,0.9,1.4,1.7,1.9c1.2,0.7,2.7,0.7,3.8,0
					c0.7-0.5,1.3-1.1,1.6-1.9l0.1-0.3c0.4-0.7,1.2-1,1.9-0.6C116.3,92.3,116.5,92.6,116.6,93z"/>
				<linearGradient id="SVGID_7_" gradientUnits="userSpaceOnUse" x1="97.3739" y1="121.9817" x2="97.3739" y2="129.7108">
					<stop  offset="0" style="stop-color:#AA6800"/>
					<stop  offset="0.1704" style="stop-color:#935A00"/>
					<stop  offset="0.529" style="stop-color:#573500"/>
					<stop  offset="1" style="stop-color:#000000"/>
				</linearGradient>
				<path class="st6" d="M103.3,122.7c0.4,1.7,0,3.5-1.2,4.8c-2.2,2.6-6.2,3-8.8,0.7c-0.3-0.2-0.5-0.5-0.7-0.7
					c-1.1-1.3-1.6-3.1-1.1-4.8c0.2-0.5,0.8-0.8,1.3-0.6c0.2,0.1,0.4,0.3,0.5,0.5v0.1c0.7,2.2,3.1,3.5,5.3,2.8
					c1.3-0.4,2.4-1.5,2.8-2.8v-0.1c0.2-0.5,0.8-0.8,1.3-0.6C103,122.2,103.2,122.4,103.3,122.7z"/>
				<linearGradient id="SVGID_8_" gradientUnits="userSpaceOnUse" x1="97.373" y1="109.248" x2="97.373" y2="118.2562">
					<stop  offset="0" style="stop-color:#AA6800"/>
					<stop  offset="0.1704" style="stop-color:#935A00"/>
					<stop  offset="0.529" style="stop-color:#573500"/>
					<stop  offset="1" style="stop-color:#000000"/>
				</linearGradient>
				<path class="st7" d="M104.2,110.8c0.3,1.9-0.3,3.8-1.6,5.2c-2.6,2.9-7,3.1-9.9,0.5c0,0,0,0,0,0c-0.2-0.1-0.3-0.3-0.5-0.5
					c-1.3-1.4-1.9-3.3-1.6-5.2c0.2-1,1.1-1.7,2.1-1.5c0.7,0.1,1.2,0.6,1.4,1.2l0.1,0.3c0.2,0.7,0.7,1.4,1.3,1.9
					c1.1,0.8,2.6,0.8,3.7,0c0.6-0.5,1.1-1.1,1.3-1.9l0.1-0.3c0.3-1,1.4-1.5,2.3-1.1C103.6,109.6,104.1,110.1,104.2,110.8z"/>
				<linearGradient id="SVGID_9_" gradientUnits="userSpaceOnUse" x1="97.3724" y1="115.6357" x2="97.3724" y2="129.0783">
					<stop  offset="0" style="stop-color:#AA6800"/>
					<stop  offset="0.1704" style="stop-color:#935A00"/>
					<stop  offset="0.529" style="stop-color:#573500"/>
					<stop  offset="1" style="stop-color:#000000"/>
				</linearGradient>
				<path class="st8" d="M99.4,117.8l-0.6,9.9c0,0.8-0.6,1.4-1.4,1.4c-0.8,0-1.4-0.6-1.4-1.4l-0.6-9.9c-0.1-1.1,0.8-2.1,1.9-2.1
					c1.1-0.1,2.1,0.8,2.1,1.9C99.4,117.6,99.4,117.7,99.4,117.8z"/>
				<linearGradient id="SVGID_10_" gradientUnits="userSpaceOnUse" x1="97.3551" y1="53.48" x2="97.3551" y2="210.1581">
					<stop  offset="0" style="stop-color:#AA6800"/>
					<stop  offset="0.1704" style="stop-color:#935A00"/>
					<stop  offset="0.529" style="stop-color:#573500"/>
					<stop  offset="1" style="stop-color:#000000"/>
				</linearGradient>
				<path class="st9" d="M167.2,111.3c-5.9-8-10.5-16.8-13.7-26.2c-3.7-10.5-10.3-19.8-19.1-26.8c-0.7,1.1-1.5,2.1-2.5,3
					c-1,0.8-2.1,1.4-3.3,1.9c-1.2,0.4-2.5,0.7-3.7,0.7c-2,0-3.9-0.5-5.6-1.4l-0.9-0.5c-0.6-0.3-1.3-0.6-1.9-0.9
					c-2.6-1.1-5.2-2-7.9-2.7c-5.4-1.3-11-1.6-16.6-0.9c-5.5,0.7-10.9,2.3-15.8,4.9c-0.3,0.2-0.6,0.3-1,0.5c-0.4,0.2-0.8,0.3-1.3,0.4
					l-0.7,0.1h-0.7c-0.4,0-0.9,0-1.3-0.1C69.5,63.1,68,62,67,60.4c-0.9-1.6-1.1-3.5-0.4-5.1c0.3-0.7,0.7-1.3,1.1-1.8
					c-0.2,0-0.4,0.1-0.6,0.1c-12.5,7.4-21.8,19-26.3,32.8c-3.1,9.1-7.6,17.6-13.5,25.2c-11.5,15.1-17.6,33.6-17.6,52.6
					c0,38.9,70.4,53.1,122,42.7c-8.1-0.9-16.2-2.4-24.1-4.6C98.1,199.8,89,196,80.5,191c-8.6-5-16.2-11.6-22.4-19.4
					c-3.1-3.9-5.9-8.2-8.1-12.6c-1.1-2.3-2.1-4.6-3-7c-0.4-1.2-0.8-2.4-1.2-3.6c-0.2-0.6-0.3-1.2-0.5-1.9s-0.3-1.2-0.4-2
					c-0.2-1.5,0.8-2.9,2.3-3.1s2.9,0.8,3.1,2.3v0.2c0,0.5,0.1,1,0.3,1.6c0.1,0.6,0.2,1.1,0.4,1.7c0.3,1.1,0.6,2.2,0.9,3.3
					c0.7,2.2,1.5,4.4,2.5,6.5c1.9,4.3,4.3,8.4,7.2,12.1c5.7,7.6,12.7,14.1,20.7,19.2c4.5,2.9,9.2,5.5,14.1,7.6
					c5.8-1.2,11.4-3.3,16.6-6.1c2.8-1.6,5.5-3.4,8-5.4c2.5-2,4.8-4.2,7-6.6c4.2-4.8,7.8-10.2,10.5-16c1.4-2.9,2.6-5.8,3.6-8.9
					c0.5-1.5,1-3,1.4-4.6s0.8-3.1,1-4.6v-0.1c0.1-1.2,1.2-2,2.4-1.9c1.2,0.1,2,1.2,1.9,2.4c0,0.1,0,0.1,0,0.2v0.1
					c-0.4,1.8-0.8,3.3-1.3,5s-1.1,3.2-1.6,4.8c-1.2,3.1-2.6,6.2-4.1,9.1c-3.1,5.9-7,11.4-11.7,16.2c-2.3,2.4-4.9,4.6-7.5,6.6
					c-7.2,5.3-15.5,8.8-24.2,10.4c3.3,1.4,6.7,2.6,10.1,3.7c8.8,2.8,17.8,4.7,26.9,5.9c28.1-6.4,49.8-20.3,49.8-41.9
					C185,145.2,178.8,126.6,167.2,111.3z M128.2,107c-6.4,5-10.2,12.6-10.3,20.8v0.8c0,11.3-9.2,20.5-20.6,20.5c0,0,0,0,0,0
					c-0.7,0-1.3,0-1.9-0.1c-10.6-1-18.5-10.2-18.5-20.9v-0.4C76.8,119.6,73,112,66.6,107c-9.5-7.5-11.2-21.3-3.7-30.9
					c5.9-7.6,16.1-10.4,25.1-7c6,2.3,12.7,2.3,18.8,0c11.4-4.3,24.1,1.4,28.4,12.8C138.5,90.9,135.7,101.1,128.2,107z"/>
				<linearGradient id="SVGID_11_" gradientUnits="userSpaceOnUse" x1="99.1413" y1="35.5309" x2="99.1413" y2="62.001">
					<stop  offset="0" style="stop-color:#AA6800"/>
					<stop  offset="0.1704" style="stop-color:#935A00"/>
					<stop  offset="0.529" style="stop-color:#573500"/>
					<stop  offset="1" style="stop-color:#000000"/>
				</linearGradient>
				<path class="st10" d="M129.6,43.5c-8.2-4.4-17.3-7.1-26.6-7.8c-4.6-0.4-9.3-0.2-13.9,0.4c-4.6,0.6-9.1,1.7-13.5,3.2
					c-2.2,0.8-4.3,1.6-6.4,2.6c-1,0.5-2.1,1-3.1,1.5c-0.2,0.1-0.5,0.3-0.7,0.4l-0.6,0.4l-0.5,0.5c-0.1,0.2-0.3,0.4-0.4,0.6
					c-1,1.7-0.9,3.8,0.3,5.4c0.6,0.6,1.3,1,2.1,1.2c1.2,0.2,2.3,0,3.4-0.5c3.9-1.9,7.9-3.4,12.1-4.5c4.8-1.3,9.8-2.1,14.8-2.2
					c10-0.1,19.9,2.4,28.6,7.2c0.2,0.1,0.3,0.4,0.2,0.7c-0.1,0.2-0.4,0.3-0.7,0.2c-8.6-4.6-18.3-7-28.1-6.8
					c-4.9,0.2-9.7,0.9-14.4,2.3c-3.6,1-7.1,2.3-10.5,3.9c-1.2,0.6-2.2,1.5-2.7,2.8c-0.1,0.3-0.2,0.7-0.3,1c-0.2,1.1,0,2.2,0.5,3.1
					c0.6,0.9,1.5,1.5,2.6,1.7c0.3,0.1,0.5,0.1,0.8,0.1H73l0.4-0.1c0.3-0.1,0.5-0.1,0.8-0.3c0.3-0.1,0.6-0.2,0.8-0.4
					c5.2-2.7,10.9-4.5,16.8-5.1c5.8-0.6,11.7-0.2,17.4,1.3c2.8,0.7,5.6,1.8,8.2,3c0.7,0.3,1.3,0.6,2,1l1,0.5
					c0.3,0.2,0.6,0.3,0.9,0.5c1.2,0.5,2.5,0.8,3.7,0.8c2.2,0,4.3-0.6,6.1-1.9c4.3-3.2,5.3-9.3,2.1-13.6
					C132.2,45.2,131,44.2,129.6,43.5L129.6,43.5z"/>
				<linearGradient id="SVGID_12_" gradientUnits="userSpaceOnUse" x1="177.45" y1="11.32" x2="177.45" y2="74.7052">
					<stop  offset="0" style="stop-color:#AA6800"/>
					<stop  offset="0.1704" style="stop-color:#935A00"/>
					<stop  offset="0.529" style="stop-color:#573500"/>
					<stop  offset="1" style="stop-color:#000000"/>
				</linearGradient>
				<path class="st11" d="M155.6,46.8c0.1,0.8-0.6,1.6-1.4,1.6h-7.7c-1,0-2,0-2-2c0-3.7,1.3-8,5.3-8C155,38.4,155.6,45.6,155.6,46.8
					z M149.4,30.3c-1.5,0-1.8-3.2-1.8-4.1s-0.5-7.4,6.2-7.4c7.3,0,5.6,8.6,5.4,9.9s-1.8,1.5-3.2,1.5H149.4z M164.1,39
					c0.7,0,1.4,0.1,1,1.6c-0.7,4.3-1,8.7-1.1,13.1c0,3.1-0.3,7.4-3.6,10.7c-3.3,3.3-6.5,4.1-7,4.1c-0.7,0-1.7,0.1-2.2-0.5
					s-0.5-3.7-0.5-4.7s0.1-1.2,1.1-1.5c2.1-1,4-2.5,5.3-4.4c2.2-2.8,1.6-10.6,1.6-14.1s0.9-4.3,1.6-4.3H164.1z M170.4,62.8
					c2.5,0,4,2.3,5.3,3.6s-0.2,2.4-1.5,2.4s-2.6,0.8-4.5,0.8s-2.9-0.7-2.9-2.4C166.8,64.6,167.9,62.8,170.4,62.8L170.4,62.8z
					 M199.8,50.4c6.1,0.7,10.7,4.3,10.7,10.4c0,4.8-4.7,9-6.7,10.5c0,0-2.3,2.5-2.8,3c-0.7,0.4-1.5,0.4-2.2,0c0,0-7.8-5.4-8.3-5.9
					c-0.4-0.4-0.5-1-0.1-1.4c0.1-0.1,0.2-0.2,0.2-0.2c0,0,0.6-0.6,1.4-1.5c0.7-0.7,1.9-0.7,2.6-0.1l3.2,2.4c1.5-1,5.3-3.9,4.9-7.1
					c-0.5-3.9-3.8-7.1-10.5-7.1s-9.3,2.1-9.3,2.6s-1.1,1.1-2,0.1c-3.8,3.7-10.4,5.1-11.4,5.1c-0.6,0.1-1.1-0.4-1.2-0.9
					c0-0.3,0.1-0.7,0.3-0.9c0.5-0.8,0.5-1.8-0.1-2.6c-0.5-0.5-0.7-2.1,0.3-2.1c2.4,0,4.7-0.5,6.8-1.6c1.4-0.7,2.7-2.7,3.2-4.7
					c-3.6-0.1-6.3-0.3-6.3-0.3c-0.4,0.4-1.7,1.2-2.3,0.4s-2.2-3.7-1.7-4.6s1.8-0.6,2.8-0.6h33.1c2.1,0,2.8,0.4,2.8,2.2v2.4
					c0,0.7-0.5,1.5-3,1.5c-1.2,0-11.1-0.5-19.5-0.8c-0.2,1.2-0.6,2.3-1.1,3.3C188.6,49.7,194.4,49.8,199.8,50.4L199.8,50.4z
					 M172.3,35.8c-2.1,0-2-2.7-1.6-5.7c0.3-4.7,0.2-18.8,14.6-18.8S202,23.1,202,27.6c0,8.4-1.4,9.5-2.6,9.5c-0.6,0.1-1.2-0.3-1.3-1
					c0-0.1,0-0.2,0-0.3H172.3z M181.6,61.3c3.6,0.7,3.2,5,1.6,6c-1.3,0.7-4.7,1.3-5.7-2S178.9,60.8,181.6,61.3z M181.8,27.6v2
					l6.6-0.1c1,0,1.9-0.5,2.5-1.3C191.6,27.5,188.5,27.6,181.8,27.6z M186.3,18.2c-2-0.1-3.8,1.4-4.1,3.4h7.9
					C189.8,19.7,188.2,18.3,186.3,18.2L186.3,18.2z M192.2,60.6c0,1.8-1.5,3.2-3.2,3.2c-2.2,0-3.1-1.4-3.1-2.8s0.3-3.4,3.3-3.4
					c1.6-0.1,2.9,1.1,3.1,2.6C192.2,60.3,192.2,60.5,192.2,60.6L192.2,60.6z M199.5,62.9c-2,0.9-3.4,0-4.3-1.5
					c-0.9-1.5-0.4-3.4,1.1-4.2c0.5-0.3,1.1-0.5,1.8-0.4c2.1,0,2.9,1.5,3.5,2.8S201.5,62.2,199.5,62.9z"/>
				<linearGradient id="SVGID_13_" gradientUnits="userSpaceOnUse" x1="231.49" y1="62.1" x2="231.49" y2="104.1847">
					<stop  offset="0" style="stop-color:#AA6800"/>
					<stop  offset="0.1704" style="stop-color:#935A00"/>
					<stop  offset="0.529" style="stop-color:#573500"/>
					<stop  offset="1" style="stop-color:#000000"/>
				</linearGradient>
				<path class="st12" d="M218.8,73.7c-1.8,2.4-3.9,3.9-9.2,3.9l-0.2-3.2c4.5-1,6.4-5.2,6.6-8.6l4.9-0.4
					C220.9,68.3,220.2,71.1,218.8,73.7z M245.6,96.2c0.3-2.8,2.9-5.4,7.9-4.6l-0.9,12.6c-2.9,0-10.8,0.7-15.6-3.3s-7-9.6-7-16.8
					h-0.5c-2,10.5-15.2,17.2-16,17.4s-1.9,0.5-1.4,0l8.5-17.4h-3.5v-7.6h26.5V84h-6.4C237.3,91.8,240.9,95.6,245.6,96.2z M227,75.1
					v-3.9h-4.1v-2.8h4.1c0-1.8,0.2-6.3,3.3-6.3c1.8,0,3.4,1.1,3.4,6.3h4.7v2.8h-4.7v3.9L227,75.1z"/>
				<linearGradient id="SVGID_14_" gradientUnits="userSpaceOnUse" x1="222.283" y1="102.3606" x2="222.283" y2="141.8">
					<stop  offset="0" style="stop-color:#AA6800"/>
					<stop  offset="0.1704" style="stop-color:#935A00"/>
					<stop  offset="0.529" style="stop-color:#573500"/>
					<stop  offset="1" style="stop-color:#000000"/>
				</linearGradient>
				<path class="st13" d="M205.5,127.9c-0.4,0.4-0.9,0.5-1.2,0.1c-1.6-2.3-2.7-4.9-3.4-7.6c-0.8-3.5-0.6-11-0.6-11.9
					s0.5-0.9,0.9-0.9l6.8,0.2c0.6,0,0.9,0.1,0.9,1s-0.2,7.9,2.7,10.8c0.4,0.4,1.4,0.1,1,0.5L205.5,127.9z M244.2,138.9
					c0.2,1.3-1,2.9-3.8,2.9h-34c-1.7,0-3.1-0.6-3.1-2.4c-0.2-1.4,0.9-2.7,2.3-2.8c0.2,0,0.4,0,0.6,0h12.4l0.9-10.9
					c-1.1,0-1.9,0.1-2.2,0.1c-1.4,0-2-0.8-2-1.6v-3.1c0-0.4,0.1-0.6,0.6-0.6h3.9l0.1-2.3c-3.4,0.1-5.9,0.1-6.1,0.1
					c-0.6,0-0.7-0.3-0.7-0.7v-1.8c0-0.6,0.4-0.6,0.8-0.6l6.3-0.2l0.9-11.8c1.4-0.9,3.2-0.9,4.8-0.2c2.2,1.1,3.6,3.4,3.5,5.9
					l-0.4,5.8c3.8-0.1,6.9-0.2,7.1-0.2c0.7,0,0.6,0.4,0.6,0.6v1.9c0.5,0,0.5,0.2,0.5,0.5s-0.4,0.4-0.6,0.4c0,0-3.5,0-7.9,0.1
					l-0.2,2.4c2.1-0.1,3.4-0.1,3.4-0.1c0.7,0,1,0.1,0.9,0.8c0,0-0.3,2.9-0.4,3.4s-0.4,0.6-1.2,0.7c-1,0-2.1,0.1-3.1,0.2l-0.8,11.3
					h12.8C242.6,136.7,244.1,137.4,244.2,138.9L244.2,138.9z"/>
				<linearGradient id="SVGID_15_" gradientUnits="userSpaceOnUse" x1="25.9002" y1="15.5991" x2="25.9002" y2="94.73">
					<stop  offset="0" style="stop-color:#AA6800"/>
					<stop  offset="0.1704" style="stop-color:#935A00"/>
					<stop  offset="0.529" style="stop-color:#573500"/>
					<stop  offset="1" style="stop-color:#000000"/>
				</linearGradient>
				<path class="st14" d="M36.5,56c5-5.4,5.1-13.7,0.3-19.3c-1.3-1.6-1.6-3.8-0.7-5.7c2.4-5.6-0.2-12.1-5.8-14.5s-12.1,0.2-14.5,5.8
					c-1.2,2.9-1.2,6.1,0.1,8.9c0.8,1.9,0.5,4.1-0.9,5.7c-4.7,5.5-4.6,13.7,0.4,19.1c1.5,1.7,1.8,4.2,0.7,6.2
					c-2.1,4.1-1.4,9.1,1.8,12.5c1.2,1.2,1.8,2.9,1.5,4.6c-0.1,0.7-0.1,1.5,0,2.2c0.2,0.9,0.5,1.7,1,2.5c2,3.1,5.9,5.3,5.5,10.7l0,0
					c-0.1-5.1,3-7.3,5.3-10.2c0.9-1.1,1.4-2.6,1.4-4c0-0.3,0-0.5,0-0.8c-0.3-1.7,0.2-3.5,1.4-4.8c3.3-3.4,4-8.4,1.9-12.6
					C34.7,60.3,35,57.7,36.5,56z"/>
				<linearGradient id="SVGID_16_" gradientUnits="userSpaceOnUse" x1="86.275" y1="1.58" x2="86.275" y2="21">
					<stop  offset="0" style="stop-color:#AA6800"/>
					<stop  offset="0.1704" style="stop-color:#935A00"/>
					<stop  offset="0.529" style="stop-color:#573500"/>
					<stop  offset="1" style="stop-color:#000000"/>
				</linearGradient>
				<path class="st15" d="M86.3,1.6L86.3,1.6c0.7,5.1,4.7,9,9.7,9.7l0,0c-5.1,0.7-9.1,4.6-9.7,9.7l0,0c-0.7-5.1-4.7-9-9.7-9.7l0,0
					C81.6,10.6,85.6,6.6,86.3,1.6L86.3,1.6z"/>
				<linearGradient id="SVGID_17_" gradientUnits="userSpaceOnUse" x1="9.705" y1="93.65" x2="9.705" y2="113.06">
					<stop  offset="0" style="stop-color:#AA6800"/>
					<stop  offset="0.1704" style="stop-color:#935A00"/>
					<stop  offset="0.529" style="stop-color:#573500"/>
					<stop  offset="1" style="stop-color:#000000"/>
				</linearGradient>
				<path class="st16" d="M9.7,93.7L9.7,93.7c0.7,5.1,4.6,9,9.7,9.7l0,0c-5.1,0.7-9,4.7-9.7,9.7l0,0C9,108,5.1,104,0,103.4l0,0
					C5.1,102.7,9,98.7,9.7,93.7z"/>
			</g>
		</g>
	</g>
</g>
</svg>
